<svg width="30" height="30" viewBox="0 0 30 30" fill="none" xmlns="http://www.w3.org/2000/svg">
<path d="M25.9638 21.5624C26.1403 21.2453 26.25 20.8882 26.25 20.5673V9.43247C26.25 9.11168 26.1404 8.75454 25.9638 8.4375L15 15L25.9638 21.5624Z" fill="#7F3A86"/>
<path d="M15.9745 27.8843L25.276 22.3169C25.544 22.1565 25.7875 21.8796 25.9641 21.5625L15.0003 15L4.03656 21.5625C4.21311 21.8796 4.45671 22.1566 4.72458 22.3169L14.026 27.8843C14.5618 28.2052 15.4388 28.2052 15.9745 27.8843Z" fill="#662579"/>
<path d="M25.9638 8.43746C25.7873 8.12034 25.5436 7.8434 25.2758 7.68301L15.9742 2.11558C15.4385 1.79481 14.5615 1.79481 14.0258 2.11558L4.72427 7.68301C4.18838 8.00371 3.75 8.79102 3.75 9.43247V20.5674C3.75 20.8882 3.85963 21.2454 4.03625 21.5625L15 15L25.9638 8.43746Z" fill="#9A5196"/>
<path d="M15.0361 22.5C10.8807 22.5 7.5 19.1355 7.5 15C7.5 10.8645 10.8807 7.5 15.0361 7.5C17.6679 7.5 20.1257 8.88346 21.4866 11.1204L18.2592 13.0561C17.5774 11.94 16.3499 11.25 15.0361 11.25C12.9583 11.25 11.2681 12.9322 11.2681 15C11.2681 17.0678 12.9583 18.75 15.0361 18.75C16.3464 18.75 17.5707 18.0638 18.2538 16.953L21.488 18.8774C20.1274 21.1157 17.6688 22.5 15.0361 22.5Z" fill="white"/>
<path fill-rule="evenodd" clip-rule="evenodd" d="M23.4376 12.1875V13.1226H21.5624V12.1875H20.6251V13.1226H19.6875V14.0625H20.6251V15.9326H19.6875V16.875H20.6251V17.8125H21.5624L21.5625 16.875H23.4376V17.8125H24.3749V16.875H25.3125V15.9375H24.3749V14.0625H25.3125V13.1226H24.3749V12.1875H23.4376ZM23.4376 15.9375V14.0625H21.5624V15.9326L23.4376 15.9375Z" fill="white"/>
</svg>
