<svg width="23" height="23" viewBox="0 0 23 23" fill="none" xmlns="http://www.w3.org/2000/svg">
<g clip-path="url(#clip0_5_18)">
<path d="M0 0H23V23H0V0Z" fill="#F7DF1E"/>
<path d="M6.04755 19.2205L7.80767 18.1553C8.14723 18.7573 8.45613 19.2667 9.19706 19.2667C9.90728 19.2667 10.3551 18.9889 10.3551 17.9083V10.5592H12.5165V17.9388C12.5165 20.1775 11.2042 21.1965 9.28971 21.1965C7.56066 21.1965 6.55698 20.301 6.04752 19.2203" fill="black"/>
<path d="M13.6905 18.9889L15.4504 17.9699C15.9137 18.7265 16.5158 19.2822 17.581 19.2822C18.4766 19.2822 19.0477 18.8345 19.0477 18.2169C19.0477 17.4758 18.4611 17.2133 17.4729 16.7812L16.9327 16.5494C15.3733 15.8857 14.3388 15.052 14.3388 13.2919C14.3388 11.6708 15.5739 10.4356 17.5039 10.4356C18.878 10.4356 19.8661 10.9143 20.5762 12.1649L18.8933 13.2455C18.5228 12.5817 18.1215 12.3193 17.5039 12.3193C16.8709 12.3193 16.4695 12.7207 16.4695 13.2455C16.4695 13.894 16.8709 14.1565 17.7972 14.558L18.3375 14.7895C20.1747 15.577 21.2092 16.3797 21.2092 18.186C21.2092 20.1315 19.6808 21.1966 17.6274 21.1966C15.6203 21.1966 14.3234 20.2395 13.6905 18.9889Z" fill="black"/>
</g>
<defs>
<clipPath id="clip0_5_18">
<rect width="23" height="23" fill="white"/>
</clipPath>
</defs>
</svg>
