<svg width="36" height="35" viewBox="0 0 36 35" fill="none" xmlns="http://www.w3.org/2000/svg">
<g clip-path="url(#clip0_5_37)">
<path d="M18.4576 25.5555C26.9144 25.5555 33.7701 21.9489 33.7701 17.5C33.7701 13.0511 26.9144 9.44452 18.4576 9.44452C10.0007 9.44452 3.14508 13.0511 3.14508 17.5C3.14508 21.9489 10.0007 25.5555 18.4576 25.5555Z" fill="url(#paint0_radial_5_37)"/>
<path d="M18.4576 24.9572C26.584 24.9572 33.1718 21.6185 33.1718 17.5C33.1718 13.3815 26.584 10.0428 18.4576 10.0428C10.3311 10.0428 3.74335 13.3815 3.74335 17.5C3.74335 21.6185 10.3311 24.9572 18.4576 24.9572Z" fill="#6280B6"/>
<path d="M21.4381 19.9062L22.1676 16.1503C22.2715 15.8289 22.2886 15.4857 22.2172 15.1555C22.1457 14.8253 21.9883 14.5199 21.7607 14.2702C21.1256 13.8192 20.348 13.615 19.5732 13.6959H18.3121L18.6742 11.8366C18.6808 11.8019 18.6796 11.7663 18.6709 11.7322C18.6621 11.698 18.6459 11.6662 18.6235 11.6391C18.601 11.6119 18.5728 11.59 18.5409 11.575C18.5091 11.56 18.4743 11.5522 18.439 11.5522H16.689C16.6334 11.5522 16.5796 11.5715 16.5367 11.6068C16.4938 11.6421 16.4645 11.6912 16.4539 11.7458L15.6784 15.7336C15.6187 15.3072 15.4376 14.907 15.1567 14.5808C14.8439 14.2675 14.4666 14.0263 14.051 13.8738C13.6354 13.7214 13.1916 13.6614 12.7504 13.6981H9.37948C9.32392 13.6981 9.27007 13.7174 9.22717 13.7527C9.18427 13.788 9.15498 13.8372 9.14433 13.8917L7.57589 21.9636C7.56929 21.9982 7.57042 22.0339 7.57918 22.068C7.58794 22.1021 7.60413 22.1339 7.62659 22.1611C7.64905 22.1882 7.67723 22.2101 7.70911 22.2251C7.741 22.2401 7.7758 22.2479 7.81105 22.248H9.56433C9.6199 22.248 9.67374 22.2287 9.71664 22.1934C9.75954 22.158 9.78883 22.1089 9.79948 22.0544L10.179 20.102H11.4915C12.071 20.1175 12.6495 20.0437 13.2065 19.8833C13.6762 19.7279 14.1057 19.4705 14.4643 19.1297C14.7582 18.862 15.009 18.5506 15.2081 18.2066L14.8942 19.8198C14.8876 19.8545 14.8887 19.8901 14.8975 19.9242C14.9062 19.9584 14.9224 19.9902 14.9449 20.0173C14.9673 20.0445 14.9955 20.0664 15.0274 20.0814C15.0593 20.0964 15.0941 20.1042 15.1293 20.1042H16.8793C16.9349 20.1042 16.9887 20.0849 17.0316 20.0496C17.0745 20.0143 17.1038 19.9652 17.1145 19.9106L17.9753 15.4798H19.1718C19.6815 15.4798 19.8281 15.5816 19.8718 15.6253C19.9156 15.6691 19.9812 15.8058 19.8992 16.2477L19.2046 19.8187C19.198 19.8534 19.1992 19.889 19.2079 19.9232C19.2167 19.9573 19.2329 19.9891 19.2553 20.0162C19.2778 20.0434 19.306 20.0653 19.3379 20.0803C19.3697 20.0953 19.4046 20.1031 19.4398 20.1031H21.2117C21.2662 20.101 21.3183 20.0803 21.3595 20.0445C21.4007 20.0087 21.4284 19.9599 21.4381 19.9062ZM13.3498 16.8066C13.2963 17.2657 13.0783 17.69 12.7362 18.0009C12.3064 18.2683 11.8025 18.3913 11.2979 18.352H10.5192L11.0825 15.4525H12.0898C12.8303 15.4525 13.1278 15.6111 13.2481 15.7434C13.3399 15.9031 13.3964 16.0806 13.414 16.264C13.4315 16.4474 13.4096 16.6323 13.3498 16.8066Z" fill="white"/>
<path d="M28.8985 14.5819C28.5857 14.2686 28.2084 14.0274 27.7928 13.8749C27.3772 13.7225 26.9334 13.6625 26.4923 13.6992H23.1115C23.0559 13.6992 23.0021 13.7185 22.9592 13.7538C22.9163 13.7891 22.887 13.8383 22.8763 13.8928L21.3079 21.9647C21.3013 21.9993 21.3024 22.035 21.3112 22.0691C21.3199 22.1032 21.3361 22.135 21.3586 22.1622C21.381 22.1893 21.4092 22.2112 21.4411 22.2262C21.473 22.2413 21.5078 22.249 21.543 22.2491H23.3018C23.3574 22.2491 23.4112 22.2298 23.4541 22.1945C23.497 22.1591 23.5263 22.11 23.5369 22.0555L23.9165 20.1031H25.229C25.8085 20.1186 26.3869 20.0448 26.944 19.8844C27.4137 19.729 27.8432 19.4716 28.2018 19.1308C28.8159 18.5773 29.2297 17.8363 29.3787 17.0231C29.4963 16.6071 29.5142 16.1692 29.4308 15.745C29.3473 15.3208 29.165 14.9223 28.8985 14.5819ZM27.0752 16.8066C27.0217 17.2658 26.8038 17.69 26.4616 18.0009C26.0308 18.2686 25.5256 18.3912 25.0201 18.3509H24.2435L24.8068 15.4514H25.8141C26.5546 15.4514 26.8521 15.61 26.9724 15.7424C27.0645 15.9021 27.1214 16.0798 27.1391 16.2633C27.1568 16.4469 27.1351 16.6321 27.0752 16.8066Z" fill="white"/>
<path d="M12.0898 15.2119C12.3257 15.1822 12.5653 15.1995 12.7945 15.263C13.0237 15.3265 13.2381 15.4347 13.4252 15.5816C13.546 15.7675 13.623 15.9783 13.6504 16.1983C13.6779 16.4182 13.6551 16.6415 13.5838 16.8514C13.5213 17.3682 13.2715 17.8441 12.8816 18.1891C12.4115 18.4919 11.8557 18.6339 11.2979 18.5938H10.2282L10.8844 15.2152L12.0898 15.2119ZM7.80554 22.0106H9.56429L9.98101 19.8647H11.4871C12.0415 19.8798 12.5948 19.8094 13.1277 19.6558C13.5651 19.5114 13.9648 19.2715 14.298 18.9536C14.8748 18.4347 15.2633 17.7393 15.4027 16.9761C15.5131 16.5966 15.5325 16.1964 15.4593 15.808C15.3862 15.4196 15.2225 15.0538 14.9816 14.7405C14.6912 14.4532 14.3416 14.2327 13.9571 14.0944C13.5727 13.9562 13.1628 13.9034 12.7559 13.9399H9.37945L7.80554 22.0106Z" fill="#000004"/>
<path d="M16.6934 11.7928H18.4434L18.0201 13.9388H19.5743C20.2881 13.864 21.0053 14.0455 21.5977 14.4506C21.7938 14.6735 21.9279 14.944 21.9864 15.2351C22.045 15.5261 22.026 15.8274 21.9313 16.1088L21.2018 19.8647H19.431L20.1255 16.2936C20.1739 16.1573 20.1912 16.0119 20.176 15.8681C20.1609 15.7242 20.1137 15.5856 20.038 15.4623C19.7848 15.2809 19.4719 15.2027 19.163 15.2436H17.7685L16.8694 19.868H15.1194L16.6934 11.7928Z" fill="#000004"/>
<path d="M25.8152 15.2119C26.0512 15.1822 26.2907 15.1995 26.52 15.263C26.7492 15.3265 26.9636 15.4347 27.1507 15.5816C27.2714 15.7675 27.3484 15.9783 27.3759 16.1983C27.4034 16.4182 27.3806 16.6415 27.3093 16.8514C27.2468 17.3682 26.9969 17.8441 26.6071 18.1891C26.136 18.4926 25.579 18.6346 25.0201 18.5938H23.9504L24.6066 15.2152L25.8152 15.2119ZM21.531 22.0106H23.2898L23.7065 19.8647H25.2126C25.7669 19.8798 26.3203 19.8094 26.8532 19.6558C27.2905 19.5114 27.6903 19.2715 28.0235 18.9536C28.6003 18.4347 28.9888 17.7393 29.1282 16.9761C29.2386 16.5966 29.258 16.1964 29.1848 15.808C29.1116 15.4196 28.948 15.0538 28.7071 14.7405C28.4166 14.4532 28.067 14.2327 27.6826 14.0944C27.2982 13.9562 26.8882 13.9034 26.4813 13.9399H23.0994L21.531 22.0106Z" fill="#000004"/>
</g>
<defs>
<radialGradient id="paint0_radial_5_37" cx="0" cy="0" r="1" gradientUnits="userSpaceOnUse" gradientTransform="translate(12.3391 12.2773) scale(20.1075)">
<stop stop-color="white"/>
<stop offset="0.5" stop-color="#4C6B96"/>
<stop offset="1" stop-color="#231F20"/>
</radialGradient>
<clipPath id="clip0_5_37">
<rect width="35" height="35" fill="white" transform="translate(0.957581)"/>
</clipPath>
</defs>
</svg>
